<svg xmlns="http://www.w3.org/2000/svg" xmlns:xlink="http://www.w3.org/1999/xlink" xmlns:lucid="lucid" width="1316" height="1480"><g transform="translate(-64 0)" lucid:page-tab-id="0_0"><path d="M140 749.62c0-4.42 3.58-8 8-8h344c4.42 0 8 3.58 8 8V1412c0 4.42-3.58 8-8 8H148c-4.42 0-8-3.58-8-8z" stroke="#333" fill="#f2f3f5"/><path d="M306.13 64.84c0-4.42 3.58-8 8-8h836.74c4.42 0 8 3.58 8 8v31.48c0 4.42-3.58 8-8 8H314.13c-4.42 0-8-3.58-8-8z" stroke="#000" stroke-opacity="0" stroke-width="2" fill="#fff" fill-opacity="0"/><use xlink:href="#a" transform="matrix(1,0,0,1,310.1252457659425,60.83761197833299) translate(361.23962962962963 29.71333333333333)"/><path d="M569.43 102.77h332.7M569.46 102.77h-1.03M902.1 102.77h1.03" stroke="#a9afb8" stroke-width="2" fill="none"/><path d="M306.13 109.16c0-4.42 3.58-8 8-8h837.7c4.42 0 8 3.58 8 8V112c0 4.42-3.58 8-8 8h-837.7c-4.42 0-8-3.58-8-8z" stroke="#000" stroke-opacity="0" stroke-width="2" fill="#fff" fill-opacity="0"/><use xlink:href="#b" transform="matrix(1,0,0,1,310.12524576594296,105.15522395689881) translate(82.24955761316869 14.917037037037037)"/><use xlink:href="#c" transform="matrix(1,0,0,1,310.12524576594296,105.15522395689881) translate(134.89431069958843 14.917037037037037)"/><use xlink:href="#d" transform="matrix(1,0,0,1,310.12524576594296,105.15522395689881) translate(197.9490432098765 14.917037037037037)"/><use xlink:href="#e" transform="matrix(1,0,0,1,310.12524576594296,105.15522395689881) translate(237.8893724279835 14.917037037037037)"/><use xlink:href="#f" transform="matrix(1,0,0,1,310.12524576594296,105.15522395689881) translate(327.0752777777777 14.917037037037037)"/><use xlink:href="#g" transform="matrix(1,0,0,1,310.12524576594296,105.15522395689881) translate(380.61231481481474 14.917037037037037)"/><use xlink:href="#h" transform="matrix(1,0,0,1,310.12524576594296,105.15522395689881) translate(438.6532613168723 14.917037037037037)"/><use xlink:href="#i" transform="matrix(1,0,0,1,310.12524576594296,105.15522395689881) translate(479.4008950617283 14.917037037037037)"/><use xlink:href="#j" transform="matrix(1,0,0,1,310.12524576594296,105.15522395689881) translate(535.3173559670781 14.917037037037037)"/><use xlink:href="#k" transform="matrix(1,0,0,1,310.12524576594296,105.15522395689881) translate(568.6717798353908 14.917037037037037)"/><use xlink:href="#l" transform="matrix(1,0,0,1,310.12524576594296,105.15522395689881) translate(651.7816563786007 14.917037037037037)"/><use xlink:href="#m" transform="matrix(1,0,0,1,310.12524576594296,105.15522395689881) translate(664.2311419753086 14.917037037037037)"/><use xlink:href="#n" transform="matrix(1,0,0,1,310.12524576594296,105.15522395689881) translate(710.8848456790123 14.917037037037037)"/><use xlink:href="#o" transform="matrix(1,0,0,1,310.12524576594296,105.15522395689881) translate(736.3786728395062 14.917037037037037)"/><path d="M599.52 443.04c0-4.42 3.58-8 8-8H891.5c4.4 0 8 3.58 8 8v92.67c0 4.43-3.6 8-8 8H607.5c-4.42 0-8-3.57-8-8z" stroke="#000" stroke-opacity="0" stroke-width="2" fill="#54c45e"/><use xlink:href="#p" transform="matrix(1,0,0,1,604.5202051677493,440.04098090701757) translate(66.66666666666669 55.36458333333333)"/><path d="M600.3 978.37c0-4.42 3.6-8 8-8h283.46c4.42 0 8 3.58 8 8v92.67c0 4.42-3.58 8-8 8H608.3c-4.4 0-8-3.58-8-8z" stroke="#000" stroke-opacity="0" stroke-width="2" fill="#54c45e"/><use xlink:href="#q" transform="matrix(1,0,0,1,605.3038366954324,975.3715657180952) translate(43.8888888888889 55.36458333333333)"/><path d="M430 334.14c0 30.72-47 55.63-105 55.63s-105-24.9-105-55.63c0-30.72 47-55.63 105-55.63s105 24.92 105 55.64z" stroke="#000" stroke-opacity="0" stroke-width="2" fill="#fc9432"/><use xlink:href="#r" transform="matrix(1,0,0,1,225,283.5101151793671) translate(62.967962962962964 40.45833333333333)"/><use xlink:href="#s" transform="matrix(1,0,0,1,225,283.5101151793671) translate(43.00500000000002 72.45833333333333)"/><path d="M430 488.5c0 30.73-47 55.64-105 55.64s-105-24.9-105-55.63c0-30.7 47-55.62 105-55.62s105 24.9 105 55.63z" stroke="#000" stroke-opacity="0" stroke-width="2" fill="#fc9432"/><use xlink:href="#t" transform="matrix(1,0,0,1,225,437.8809761064337) translate(55.5975925925926 40.45833333333333)"/><use xlink:href="#s" transform="matrix(1,0,0,1,225,437.8809761064337) translate(43.00500000000002 72.45833333333333)"/><path d="M430 642.88c0 30.72-47 55.63-105 55.63s-105-24.9-105-55.62 47-55.63 105-55.63 105 24.9 105 55.63z" stroke="#000" stroke-opacity="0" stroke-width="2" fill="#fc9432"/><use xlink:href="#u" transform="matrix(1,0,0,1,225,592.2518370335004) translate(48.93092592592593 40.45833333333333)"/><use xlink:href="#s" transform="matrix(1,0,0,1,225,592.2518370335004) translate(43.00500000000002 72.45833333333333)"/><path d="M599.02 489.37H446.35" stroke="#333" fill="none"/><path d="M599.52 489.87h-.5v-1h.5z" stroke="#333" stroke-width=".05" fill="#333"/><path d="M431.6 489.37l14.26-4.63V494z" stroke="#333" fill="#333"/><path d="M599.44 441.07l-155.58-98.2" stroke="#333" fill="none"/><path d="M599.97 440.82l-.2 1.04-.6-.37.53-.86z" stroke="#333" stroke-width=".05" fill="#333"/><path d="M431.37 335l14.54 3.7-4.94 7.84z" stroke="#333" fill="#333"/><path d="M602.88 542.6l-158.7 92.06" stroke="#333" fill="none"/><path d="M603.77 542.65l-.65.38-.5-.87.23-.13z" stroke="#333" stroke-width=".05" fill="#333"/><path d="M431.4 642.07l10-11.17 4.67 8.02z" stroke="#333" fill="#333"/><path d="M749.5 544.2V954" stroke="#333" fill="none"/><path d="M750 544.22h-1v-.5h1z" stroke="#333" stroke-width=".05" fill="#333"/><path d="M749.5 968.75l-4.63-14.26h9.27z" stroke="#333" fill="#333"/><path d="M1290.27 886c0 30.72-47 55.63-105 55.63s-105-24.9-105-55.63c0-30.72 47-55.63 105-55.63s105 24.9 105 55.63z" stroke="#000" stroke-opacity="0" stroke-width="2" fill="#fc9432"/><use xlink:href="#v" transform="matrix(1,0,0,1,1085.2716784284266,835.3715657180951) translate(23.777777777777786 56.39583333333333)"/><use xlink:href="#w" transform="matrix(1,0,0,1,1085.2716784284266,835.3715657180951) translate(102.22222222222221 56.39583333333333)"/><path d="M1290.27 1026c0 30.72-47 55.63-105 55.63s-105-24.9-105-55.63c0-30.72 47-55.63 105-55.63s105 24.9 105 55.63z" stroke="#000" stroke-opacity="0" stroke-width="2" fill="#fc9432"/><use xlink:href="#x" transform="matrix(1,0,0,1,1085.2716784284266,975.3715657180951) translate(14.8888888888889 56.39583333333333)"/><use xlink:href="#w" transform="matrix(1,0,0,1,1085.2716784284266,975.3715657180951) translate(111.1111111111111 56.39583333333333)"/><path d="M1290.27 1166c0 30.72-47 55.63-105 55.63s-105-24.9-105-55.63c0-30.72 47-55.63 105-55.63s105 24.9 105 55.63z" stroke="#000" stroke-opacity="0" stroke-width="2" fill="#fc9432"/><use xlink:href="#y" transform="matrix(1,0,0,1,1085.2716784284266,1115.371565718095) translate(15.629629629629648 56.39583333333333)"/><use xlink:href="#w" transform="matrix(1,0,0,1,1085.2716784284266,1115.371565718095) translate(110.37037037037037 56.39583333333333)"/><path d="M900.26 1024.7h163.66" stroke="#333" fill="none"/><path d="M900.27 1025.2h-.5v-1h.5z" stroke="#333" stroke-width=".05" fill="#333"/><path d="M1078.68 1024.7l-14.26 4.64v-9.27z" stroke="#333" fill="#333"/><path d="M898.1 972.84l167.38-79.8" stroke="#333" fill="none"/><path d="M898.33 973.3l-.4.18-.5-.77-.1-.05.56-.27z" stroke="#333" stroke-width=".05" fill="#333"/><path d="M1078.8 886.7l-10.87 10.32-4-8.37z" stroke="#333" fill="#333"/><path d="M897.78 1076.97l167.77 81.85" stroke="#333" fill="none"/><path d="M898 1076.53l-.42.9-.72-.36.56-.37.23-.35z" stroke="#333" stroke-width=".05" fill="#333"/><path d="M1078.82 1165.3l-14.86-2.1 4.07-8.33z" stroke="#333" fill="#333"/><path d="M899.5 255.63c0 30.72-67.16 55.63-150 55.63-82.83 0-149.98-24.9-149.98-55.63 0-30.72 67.15-55.63 149.98-55.63 82.84 0 150 24.9 150 55.63z" stroke="#000" stroke-opacity="0" stroke-width="2" fill="#fc9432"/><use xlink:href="#z" transform="matrix(1,0,0,1,604.5202051677493,205) translate(27.375370370370387 40.45833333333333)"/><use xlink:href="#A" transform="matrix(1,0,0,1,604.5202051677493,205) translate(136.93092592592592 40.45833333333333)"/><use xlink:href="#B" transform="matrix(1,0,0,1,604.5202051677493,205) translate(89.52351851851854 72.45833333333333)"/><path d="M749.5 434.54v-106.9" stroke="#333" fill="none"/><path d="M750 435.04h-1v-.5h1z" stroke="#333" stroke-width=".05" fill="#333"/><path d="M749.5 312.88l4.64 14.26h-9.27z" stroke="#333" fill="#333"/><path d="M1055.27 444.53c0-4.42 3.58-8 8-8h244c4.42 0 8 3.58 8 8v87.96c0 4.4-3.58 8-8 8h-244c-4.42 0-8-3.6-8-8z" stroke="#333" fill="#fff7a1"/><use xlink:href="#C" transform="matrix(1,0,0,1,1060.2716784284266,441.52541799580524) translate(56.97037037037036 52.31666666666667)"/><path d="M1054.27 488.5h-138.4" stroke="#333" fill="none"/><path d="M1054.77 489h-.5v-1h.5z" stroke="#333" stroke-width=".05" fill="#333"/><path d="M901.1 488.5l14.27-4.63v9.28z" stroke="#333" fill="#333"/><path d="M430 871.63c0 30.72-47 55.63-105 55.63s-105-24.9-105-55.63C220 840.9 267 816 325 816s105 24.9 105 55.63z" stroke="#000" stroke-opacity="0" stroke-width="2" fill="#979ea8"/><use xlink:href="#D" transform="matrix(1,0,0,1,225,821.000704791044) translate(10.404320987654302 54.61805555555556)"/><use xlink:href="#E" transform="matrix(1,0,0,1,225,821.000704791044) translate(85.09567901234567 54.61805555555556)"/><path d="M430 1026c0 30.72-47 55.63-105 55.63s-105-24.9-105-55.63c0-30.72 47-55.63 105-55.63s105 24.9 105 55.63z" stroke="#000" stroke-opacity="0" stroke-width="2" fill="#979ea8"/><g><use xlink:href="#F" transform="matrix(1,0,0,1,225,975.3715657180837) translate(59.2982098765432 41.86805555555556)"/><use xlink:href="#E" transform="matrix(1,0,0,1,225,975.3715657180837) translate(47.75499999999998 71.20138888888889)"/></g><path d="M430 1180.37c0 30.72-47 55.63-105 55.63s-105-24.9-105-55.63c0-30.72 47-55.63 105-55.63s105 24.9 105 55.63z" stroke="#000" stroke-opacity="0" stroke-width="2" fill="#979ea8"/><g><use xlink:href="#G" transform="matrix(1,0,0,1,225,1129.7424266451235) translate(53.1870987654321 41.86805555555556)"/><use xlink:href="#E" transform="matrix(1,0,0,1,225,1129.7424266451235) translate(47.75499999999998 71.20138888888889)"/></g><path d="M599.8 1024.7h-5.1m-5.13 0h-10.23m-5.1 0H564m-5.12 0h-10.23m-5.1 0H533.3m-5.1 0h-10.24m-5.1 0H502.6m-5.12 0h-10.23m-5.1 0h-10.24m-5.12 0H456.6m-5.1 0h-5.13" stroke="#333" fill="none"/><path d="M600.3 1025.2h-.5v-1h.5z" stroke="#333" stroke-width=".05" fill="#333"/><path d="M431.6 1024.7l14.25-4.63v9.27z" stroke="#333" fill="#333"/><path d="M601.72 973.2l-4.38-2.6m-4.38-2.58l-8.75-5.18m-4.37-2.6l-8.76-5.17m-4.38-2.6l-8.76-5.17m-4.38-2.6l-8.76-5.17m-4.38-2.6l-8.75-5.17m-4.38-2.6l-8.77-5.16m-4.38-2.6l-8.75-5.17m-4.38-2.6l-8.76-5.17m-4.38-2.6l-8.75-5.17m-4.38-2.6l-8.76-5.18m-4.4-2.6l-8.74-5.17m-4.38-2.6l-4.38-2.58" stroke="#333" fill="none"/><path d="M602.43 973.04l-.56.83-.42-.25.5-.86z" stroke="#333" stroke-width=".05" fill="#333"/><path d="M431.4 872.45l14.63 3.28-4.72 7.98z" stroke="#333" fill="#333"/><path d="M603.56 1077.86l-4.43 2.6m-4.43 2.63l-8.86 5.22m-4.42 2.62l-8.86 5.23m-4.43 2.62l-8.86 5.22m-4.43 2.62l-8.86 5.23m-4.43 2.6l-8.86 5.25m-4.44 2.6l-8.85 5.24m-4.42 2.62l-8.86 5.23m-4.43 2.63l-8.87 5.23m-4.43 2.62l-8.86 5.23m-4.43 2.63l-8.85 5.23m-4.43 2.6l-8.85 5.25m-4.43 2.62l-4.43 2.62" stroke="#333" fill="none"/><path d="M604.45 1077.9l-.64.4-.5-.87.23-.14z" stroke="#333" stroke-width=".05" fill="#333"/><path d="M431.4 1179.55l9.92-11.25 4.7 7.98z" stroke="#333" fill="#333"/><path d="M200 756c0-4.42 3.58-8 8-8h224c4.42 0 8 3.58 8 8v44c0 4.42-3.58 8-8 8H208c-4.42 0-8-3.58-8-8z" stroke="#000" stroke-opacity="0" fill="#fff" fill-opacity="0"/><g><use xlink:href="#H" transform="matrix(1,0,0,1,205,753) translate(6.124999999999986 30.025)"/><use xlink:href="#I" transform="matrix(1,0,0,1,205,753) translate(39.124999999999986 30.025)"/><use xlink:href="#J" transform="matrix(1,0,0,1,205,753) translate(123.975 30.025)"/><use xlink:href="#K" transform="matrix(1,0,0,1,205,753) translate(148.97500000000002 30.025)"/></g><path d="M430 1335.63c0 30.72-47 55.63-105 55.63s-105-24.9-105-55.63c0-30.72 47-55.63 105-55.63s105 24.9 105 55.63z" stroke="#000" stroke-opacity="0" stroke-width="2" fill="#979ea8"/><g><use xlink:href="#G" transform="matrix(1,0,0,1,225,1285) translate(53.1870987654321 29.96771555555556)"/><use xlink:href="#L" transform="matrix(1,0,0,1,225,1285) translate(42.39080246913578 59.3010488888889)"/><use xlink:href="#M" transform="matrix(1,0,0,1,225,1285) translate(49.14697530864198 88.63438222222224)"/></g><path d="M749.64 1079.35l-3.93 3.16m-3.93 3.16l-7.86 6.3m-3.93 3.16l-7.87 6.3m-3.93 3.17l-7.87 6.3m-3.93 3.15l-7.87 6.3m-3.94 3.16l-7.86 6.32m-3.94 3.15l-7.87 6.3m-3.94 3.17l-7.87 6.3m-3.94 3.16l-7.87 6.3m-3.94 3.16l-7.87 6.3m-3.95 3.16l-7.87 6.3m-3.93 3.17l-7.87 6.3m-3.93 3.15l-7.87 6.3m-3.93 3.16l-7.87 6.32m-3.94 3.15l-7.86 6.3m-3.94 3.17l-7.87 6.3m-3.93 3.16l-7.87 6.3m-3.93 3.16l-7.87 6.3m-3.94 3.17l-7.86 6.3m-3.94 3.16l-7.87 6.3m-3.93 3.15l-7.87 6.3m-3.93 3.16l-7.87 6.32m-3.93 3.16l-7.87 6.3m-3.94 3.16l-7.86 6.3m-3.94 3.16l-7.87 6.3m-3.93 3.16l-7.87 6.3m-3.93 3.17l-3.94 3.15" stroke="#333" fill="none"/><path d="M749.94 1079.75l-.57-.7h1.46z" stroke="#333" stroke-width=".05" fill="#333"/><path d="M431.26 1334.62l8.23-12.54 5.8 7.23z" stroke="#333" fill="#333"/><defs><path fill="#a9afb8" d="M195 0l-88-114-31 24V0H24v-248h52v113l112-113h60L142-143 257 0h-62" id="N"/><path fill="#a9afb8" d="M132-34C116-15 102 5 68 4 31 3 10-16 10-54c-1-60 55-63 116-61 1-26-3-47-28-47-18 1-26 9-28 27l-52-2c7-38 36-58 82-57s74 22 75 68l1 82c-1 14 12 18 25 15v27c-30 8-71 5-69-32zm-48 3c29 0 43-24 42-57-32 0-66-3-65 30 0 17 8 27 23 27zm33-180v-38h38v38h-38zm-76 0v-38h37v38H41" id="O"/><path fill="#a9afb8" d="M123 10C108 53 80 86 19 72V37c35 8 53-11 59-39L3-190h52l48 148c12-52 28-100 44-148h51" id="P"/><path fill="#a9afb8" d="M115-3C79 11 28 4 28-45v-112H4v-33h27l15-45h31v45h36v33H77v99c-1 23 16 31 38 25v30" id="Q"/><path fill="#a9afb8" d="M25-224v-37h50v37H25zM75 22c2 45-34 59-81 51V38c22 5 31-5 31-27v-201h50V22" id="R"/><g id="a"><use transform="matrix(0.08518518518518517,0,0,0.08518518518518517,0,0)" xlink:href="#N"/><use transform="matrix(0.08518518518518517,0,0,0.08518518518518517,22.06296296296296,0)" xlink:href="#O"/><use transform="matrix(0.08518518518518517,0,0,0.08518518518518517,39.099999999999994,0)" xlink:href="#P"/><use transform="matrix(0.08518518518518517,0,0,0.08518518518518517,56.13703703703704,0)" xlink:href="#Q"/><use transform="matrix(0.08518518518518517,0,0,0.08518518518518517,66.27407407407406,0)" xlink:href="#Q"/><use transform="matrix(0.08518518518518517,0,0,0.08518518518518517,76.4111111111111,0)" xlink:href="#O"/><use transform="matrix(0.08518518518518517,0,0,0.08518518518518517,93.44814814814814,0)" xlink:href="#R"/><use transform="matrix(0.08518518518518517,0,0,0.08518518518518517,101.96666666666665,0)" xlink:href="#O"/><use transform="matrix(0.08518518518518517,0,0,0.08518518518518517,119.0037037037037,0)" xlink:href="#Q"/></g><path fill="#a9afb8" d="M185-189c-5-48-123-54-124 2 14 75 158 14 163 119 3 78-121 87-175 55-17-10-28-26-33-46l33-7c5 56 141 63 141-1 0-78-155-14-162-118-5-82 145-84 179-34 5 7 8 16 11 25" id="S"/><path fill="#a9afb8" d="M100-194c63 0 86 42 84 106H49c0 40 14 67 53 68 26 1 43-12 49-29l28 8c-11 28-37 45-77 45C44 4 14-33 15-96c1-61 26-98 85-98zm52 81c6-60-76-77-97-28-3 7-6 17-6 28h103" id="T"/><path fill="#a9afb8" d="M114-163C36-179 61-72 57 0H25l-1-190h30c1 12-1 29 2 39 6-27 23-49 58-41v29" id="U"/><path fill="#a9afb8" d="M177-190C167-65 218 103 67 71c-23-6-38-20-44-43l32-5c15 47 100 32 89-28v-30C133-14 115 1 83 1 29 1 15-40 15-95c0-56 16-97 71-98 29-1 48 16 59 35 1-10 0-23 2-32h30zM94-22c36 0 50-32 50-73 0-42-14-75-50-75-39 0-46 34-46 75s6 73 46 73" id="V"/><path fill="#a9afb8" d="M179-190L93 31C79 59 56 82 12 73V49c39 6 53-20 64-50L1-190h34L92-34l54-156h33" id="W"/><g id="b"><use transform="matrix(0.04248971193415638,0,0,0.04248971193415638,0,0)" xlink:href="#S"/><use transform="matrix(0.04248971193415638,0,0,0.04248971193415638,10.19753086419753,0)" xlink:href="#T"/><use transform="matrix(0.04248971193415638,0,0,0.04248971193415638,18.695473251028805,0)" xlink:href="#U"/><use transform="matrix(0.04248971193415638,0,0,0.04248971193415638,23.751748971193415,0)" xlink:href="#V"/><use transform="matrix(0.04248971193415638,0,0,0.04248971193415638,32.24969135802469,0)" xlink:href="#T"/><use transform="matrix(0.04248971193415638,0,0,0.04248971193415638,40.74763374485597,0)" xlink:href="#W"/></g><path fill="#a9afb8" d="M137 0h-34L2-248h35l83 218 83-218h36" id="X"/><path fill="#a9afb8" d="M141-36C126-15 110 5 73 4 37 3 15-17 15-53c-1-64 63-63 125-63 3-35-9-54-41-54-24 1-41 7-42 31l-33-3c5-37 33-52 76-52 45 0 72 20 72 64v82c-1 20 7 32 28 27v20c-31 9-61-2-59-35zM48-53c0 20 12 33 32 33 41-3 63-29 60-74-43 2-92-5-92 41" id="Y"/><path fill="#a9afb8" d="M135-143c-3-34-86-38-87 0 15 53 115 12 119 90S17 21 10-45l28-5c4 36 97 45 98 0-10-56-113-15-118-90-4-57 82-63 122-42 12 7 21 19 24 35" id="Z"/><path fill="#a9afb8" d="M24-231v-30h32v30H24zM24 0v-190h32V0H24" id="aa"/><path fill="#a9afb8" d="M24 0v-261h32V0H24" id="ab"/><path fill="#a9afb8" d="M108 0H70L1-190h34L89-25l56-165h34" id="ac"/><path fill="#a9afb8" d="M68-38c1 34 0 65-14 84H32c9-13 17-26 17-46H33v-38h35" id="ad"/><g id="c"><use transform="matrix(0.04248971193415638,0,0,0.04248971193415638,0,0)" xlink:href="#X"/><use transform="matrix(0.04248971193415638,0,0,0.04248971193415638,9.050308641975308,0)" xlink:href="#Y"/><use transform="matrix(0.04248971193415638,0,0,0.04248971193415638,17.548251028806582,0)" xlink:href="#Z"/><use transform="matrix(0.04248971193415638,0,0,0.04248971193415638,25.19639917695473,0)" xlink:href="#aa"/><use transform="matrix(0.04248971193415638,0,0,0.04248971193415638,28.553086419753086,0)" xlink:href="#ab"/><use transform="matrix(0.04248971193415638,0,0,0.04248971193415638,31.909773662551437,0)" xlink:href="#W"/><use transform="matrix(0.04248971193415638,0,0,0.04248971193415638,39.55792181069959,0)" xlink:href="#T"/><use transform="matrix(0.04248971193415638,0,0,0.04248971193415638,48.05586419753086,0)" xlink:href="#ac"/><use transform="matrix(0.04248971193415638,0,0,0.04248971193415638,54.556790123456786,0)" xlink:href="#ad"/></g><path fill="#a9afb8" d="M205 0l-28-72H64L36 0H1l101-248h38L239 0h-34zm-38-99l-47-123c-12 45-31 82-46 123h93" id="ae"/><path fill="#a9afb8" d="M117-194c89-4 53 116 60 194h-32v-121c0-31-8-49-39-48C34-167 62-67 57 0H25l-1-190h30c1 10-1 24 2 32 11-22 29-35 61-36" id="af"/><g id="d"><use transform="matrix(0.04248971193415638,0,0,0.04248971193415638,0,0)" xlink:href="#ae"/><use transform="matrix(0.04248971193415638,0,0,0.04248971193415638,10.19753086419753,0)" xlink:href="#af"/><use transform="matrix(0.04248971193415638,0,0,0.04248971193415638,18.695473251028805,0)" xlink:href="#af"/><use transform="matrix(0.04248971193415638,0,0,0.04248971193415638,27.193415637860078,0)" xlink:href="#Y"/></g><path fill="#a9afb8" d="M160-131c35 5 61 23 61 61C221 17 115-2 30 0v-248c76 3 177-17 177 60 0 33-19 50-47 57zm-97-11c50-1 110 9 110-42 0-47-63-36-110-37v79zm0 115c55-2 124 14 124-45 0-56-70-42-124-44v89" id="ag"/><path fill="#a9afb8" d="M100-194c62-1 85 37 85 99 1 63-27 99-86 99S16-35 15-95c0-66 28-99 85-99zM99-20c44 1 53-31 53-75 0-43-8-75-51-75s-53 32-53 75 10 74 51 75" id="ah"/><path fill="#a9afb8" d="M96-169c-40 0-48 33-48 73s9 75 48 75c24 0 41-14 43-38l32 2c-6 37-31 61-74 61-59 0-76-41-82-99-10-93 101-131 147-64 4 7 5 14 7 22l-32 3c-4-21-16-35-41-35" id="ai"/><path fill="#a9afb8" d="M106-169C34-169 62-67 57 0H25v-261h32l-1 103c12-21 28-36 61-36 89 0 53 116 60 194h-32v-121c2-32-8-49-39-48" id="aj"/><path fill="#a9afb8" d="M143 0L79-87 56-68V0H24v-261h32v163l83-92h37l-77 82L181 0h-38" id="ak"/><g id="e"><use transform="matrix(0.04248971193415638,0,0,0.04248971193415638,0,0)" xlink:href="#ag"/><use transform="matrix(0.04248971193415638,0,0,0.04248971193415638,10.19753086419753,0)" xlink:href="#U"/><use transform="matrix(0.04248971193415638,0,0,0.04248971193415638,15.25380658436214,0)" xlink:href="#ah"/><use transform="matrix(0.04248971193415638,0,0,0.04248971193415638,23.751748971193415,0)" xlink:href="#ac"/><use transform="matrix(0.04248971193415638,0,0,0.04248971193415638,31.399897119341563,0)" xlink:href="#ai"/><use transform="matrix(0.04248971193415638,0,0,0.04248971193415638,39.04804526748971,0)" xlink:href="#aj"/><use transform="matrix(0.04248971193415638,0,0,0.04248971193415638,47.54598765432099,0)" xlink:href="#T"/><use transform="matrix(0.04248971193415638,0,0,0.04248971193415638,56.04393004115226,0)" xlink:href="#af"/><use transform="matrix(0.04248971193415638,0,0,0.04248971193415638,64.54187242798353,0)" xlink:href="#ak"/><use transform="matrix(0.04248971193415638,0,0,0.04248971193415638,72.19002057613169,0)" xlink:href="#ah"/><use transform="matrix(0.04248971193415638,0,0,0.04248971193415638,80.68796296296296,0)" xlink:href="#ad"/></g><path fill="#a9afb8" d="M153-248C145-148 188 4 80 4 36 3 13-21 6-62l32-5c4 25 16 42 43 43 27 0 39-20 39-49v-147H72v-28h81" id="al"/><g id="f"><use transform="matrix(0.04248971193415638,0,0,0.04248971193415638,0,0)" xlink:href="#al"/><use transform="matrix(0.04248971193415638,0,0,0.04248971193415638,7.648148148148148,0)" xlink:href="#ah"/><use transform="matrix(0.04248971193415638,0,0,0.04248971193415638,16.14609053497942,0)" xlink:href="#ah"/><use transform="matrix(0.04248971193415638,0,0,0.04248971193415638,24.644032921810698,0)" xlink:href="#af"/><use transform="matrix(0.04248971193415638,0,0,0.04248971193415638,33.141975308641975,0)" xlink:href="#Y"/><use transform="matrix(0.04248971193415638,0,0,0.04248971193415638,41.63991769547325,0)" xlink:href="#Z"/></g><path fill="#a9afb8" d="M127-220V0H93v-220H8v-28h204v28h-85" id="am"/><path fill="#a9afb8" d="M84 4C-5 8 30-112 23-190h32v120c0 31 7 50 39 49 72-2 45-101 50-169h31l1 190h-30c-1-10 1-25-2-33-11 22-28 36-60 37" id="an"/><g id="g"><use transform="matrix(0.04248971193415638,0,0,0.04248971193415638,0,0)" xlink:href="#am"/><use transform="matrix(0.04248971193415638,0,0,0.04248971193415638,8.752880658436213,0)" xlink:href="#an"/><use transform="matrix(0.04248971193415638,0,0,0.04248971193415638,17.250823045267488,0)" xlink:href="#ah"/><use transform="matrix(0.04248971193415638,0,0,0.04248971193415638,25.748765432098764,0)" xlink:href="#ak"/><use transform="matrix(0.04248971193415638,0,0,0.04248971193415638,33.39691358024691,0)" xlink:href="#ak"/><use transform="matrix(0.04248971193415638,0,0,0.04248971193415638,41.045061728395055,0)" xlink:href="#ah"/><use transform="matrix(0.04248971193415638,0,0,0.04248971193415638,49.54300411522634,0)" xlink:href="#ad"/></g><g id="h"><use transform="matrix(0.04248971193415638,0,0,0.04248971193415638,0,0)" xlink:href="#al"/><use transform="matrix(0.04248971193415638,0,0,0.04248971193415638,7.648148148148148,0)" xlink:href="#ah"/><use transform="matrix(0.04248971193415638,0,0,0.04248971193415638,16.14609053497942,0)" xlink:href="#an"/><use transform="matrix(0.04248971193415638,0,0,0.04248971193415638,24.644032921810698,0)" xlink:href="#af"/><use transform="matrix(0.04248971193415638,0,0,0.04248971193415638,33.141975308641975,0)" xlink:href="#aa"/></g><path fill="#a9afb8" d="M194 0L95-120 63-95V0H30v-248h33v124l119-124h40L117-140 236 0h-42" id="ao"/><path fill="#a9afb8" d="M141-36C126-15 110 5 73 4 37 3 15-17 15-53c-1-64 63-63 125-63 3-35-9-54-41-54-24 1-41 7-42 31l-33-3c5-37 33-52 76-52 45 0 72 20 72 64v82c-1 20 7 32 28 27v20c-31 9-61-2-59-35zM48-53c0 20 12 33 32 33 41-3 63-29 60-74-43 2-92-5-92 41zm70-161v-33h29v33h-29zm-69 0v-33h29v33H49" id="ap"/><g id="i"><use transform="matrix(0.04248971193415638,0,0,0.04248971193415638,0,0)" xlink:href="#ao"/><use transform="matrix(0.04248971193415638,0,0,0.04248971193415638,10.19753086419753,0)" xlink:href="#aa"/><use transform="matrix(0.04248971193415638,0,0,0.04248971193415638,13.554218106995881,0)" xlink:href="#aa"/><use transform="matrix(0.04248971193415638,0,0,0.04248971193415638,16.910905349794238,0)" xlink:href="#Z"/><use transform="matrix(0.04248971193415638,0,0,0.04248971193415638,24.559053497942386,0)" xlink:href="#ak"/><use transform="matrix(0.04248971193415638,0,0,0.04248971193415638,32.20720164609053,0)" xlink:href="#aa"/><use transform="matrix(0.04248971193415638,0,0,0.04248971193415638,35.56388888888888,0)" xlink:href="#ab"/><use transform="matrix(0.04248971193415638,0,0,0.04248971193415638,38.920576131687234,0)" xlink:href="#ap"/><use transform="matrix(0.04248971193415638,0,0,0.04248971193415638,47.4185185185185,0)" xlink:href="#ad"/></g><g id="j"><use transform="matrix(0.04248971193415638,0,0,0.04248971193415638,0,0)" xlink:href="#am"/><use transform="matrix(0.04248971193415638,0,0,0.04248971193415638,8.752880658436213,0)" xlink:href="#aa"/><use transform="matrix(0.04248971193415638,0,0,0.04248971193415638,12.109567901234568,0)" xlink:href="#af"/><use transform="matrix(0.04248971193415638,0,0,0.04248971193415638,20.60751028806584,0)" xlink:href="#ah"/></g><path fill="#a9afb8" d="M212-179c-10-28-35-45-73-45-59 0-87 40-87 99 0 60 29 101 89 101 43 0 62-24 78-52l27 14C228-24 195 4 139 4 59 4 22-46 18-125c-6-104 99-153 187-111 19 9 31 26 39 46" id="aq"/><path fill="#a9afb8" d="M85-194c31 0 48 13 60 33l-1-100h32l1 261h-30c-2-10 0-23-3-31C134-8 116 4 85 4 32 4 16-35 15-94c0-66 23-100 70-100zm9 24c-40 0-46 34-46 75 0 40 6 74 45 74 42 0 51-32 51-76 0-42-9-74-50-73" id="ar"/><path fill="#a9afb8" d="M210-169c-67 3-38 105-44 169h-31v-121c0-29-5-50-35-48C34-165 62-65 56 0H25l-1-190h30c1 10-1 24 2 32 10-44 99-50 107 0 11-21 27-35 58-36 85-2 47 119 55 194h-31v-121c0-29-5-49-35-48" id="as"/><g id="k"><use transform="matrix(0.04248971193415638,0,0,0.04248971193415638,0,0)" xlink:href="#aq"/><use transform="matrix(0.04248971193415638,0,0,0.04248971193415638,11.004835390946502,0)" xlink:href="#T"/><use transform="matrix(0.04248971193415638,0,0,0.04248971193415638,19.502777777777776,0)" xlink:href="#ar"/><use transform="matrix(0.04248971193415638,0,0,0.04248971193415638,28.000720164609046,0)" xlink:href="#T"/><use transform="matrix(0.04248971193415638,0,0,0.04248971193415638,36.498662551440326,0)" xlink:href="#U"/><use transform="matrix(0.04248971193415638,0,0,0.04248971193415638,41.55493827160493,0)" xlink:href="#aj"/><use transform="matrix(0.04248971193415638,0,0,0.04248971193415638,50.05288065843621,0)" xlink:href="#ah"/><use transform="matrix(0.04248971193415638,0,0,0.04248971193415638,58.550823045267485,0)" xlink:href="#ab"/><use transform="matrix(0.04248971193415638,0,0,0.04248971193415638,61.90751028806584,0)" xlink:href="#as"/></g><path fill="#a9afb8" d="M32 76v-337h29V76H32" id="at"/><use transform="matrix(0.04248971193415638,0,0,0.04248971193415638,0,0)" xlink:href="#at" id="l"/><path fill="#a9afb8" d="M240 0l2-218c-23 76-54 145-80 218h-23L58-218 59 0H30v-248h44l77 211c21-75 51-140 76-211h43V0h-30" id="au"/><g id="m"><use transform="matrix(0.04248971193415638,0,0,0.04248971193415638,0,0)" xlink:href="#au"/><use transform="matrix(0.04248971193415638,0,0,0.04248971193415638,12.704423868312757,0)" xlink:href="#Y"/><use transform="matrix(0.04248971193415638,0,0,0.04248971193415638,21.20236625514403,0)" xlink:href="#U"/><use transform="matrix(0.04248971193415638,0,0,0.04248971193415638,26.25864197530864,0)" xlink:href="#ai"/><use transform="matrix(0.04248971193415638,0,0,0.04248971193415638,33.90679012345679,0)" xlink:href="#aj"/></g><path fill="#a9afb8" d="M27 0v-27h64v-190l-56 39v-29l58-41h29v221h61V0H27" id="av"/><path fill="#a9afb8" d="M110-160c48 1 74 30 74 79 0 53-28 85-80 85-65 0-83-55-86-122-5-90 50-162 133-122 14 7 22 21 27 39l-31 6c-5-40-67-38-82-6-9 19-15 44-15 74 11-20 30-34 60-33zm-7 138c34 0 49-23 49-58s-16-56-50-56c-29 0-50 16-49 49 1 36 15 65 50 65" id="aw"/><g id="n"><use transform="matrix(0.04248971193415638,0,0,0.04248971193415638,0,0)" xlink:href="#av"/><use transform="matrix(0.04248971193415638,0,0,0.04248971193415638,8.497942386831275,0)" xlink:href="#aw"/><use transform="matrix(0.04248971193415638,0,0,0.04248971193415638,16.99588477366255,0)" xlink:href="#ad"/></g><path fill="#a9afb8" d="M101-251c82-7 93 87 43 132L82-64C71-53 59-42 53-27h129V0H18c2-99 128-94 128-182 0-28-16-43-45-43s-46 15-49 41l-32-3c6-41 34-60 81-64" id="ax"/><path fill="#a9afb8" d="M101-251c68 0 85 55 85 127S166 4 100 4C33 4 14-52 14-124c0-73 17-127 87-127zm-1 229c47 0 54-49 54-102s-4-102-53-102c-51 0-55 48-55 102 0 53 5 102 54 102" id="ay"/><g id="o"><use transform="matrix(0.04248971193415638,0,0,0.04248971193415638,0,0)" xlink:href="#ax"/><use transform="matrix(0.04248971193415638,0,0,0.04248971193415638,8.497942386831275,0)" xlink:href="#ay"/><use transform="matrix(0.04248971193415638,0,0,0.04248971193415638,16.99588477366255,0)" xlink:href="#ax"/><use transform="matrix(0.04248971193415638,0,0,0.04248971193415638,25.493827160493822,0)" xlink:href="#ax"/></g><path fill="#fff" d="M205 0l-28-72H64L36 0H1l101-248h38L239 0h-34zm-38-99l-47-123c-12 45-31 82-46 123h93" id="az"/><path fill="#fff" d="M85-194c31 0 48 13 60 33l-1-100h32l1 261h-30c-2-10 0-23-3-31C134-8 116 4 85 4 32 4 16-35 15-94c0-66 23-100 70-100zm9 24c-40 0-46 34-46 75 0 40 6 74 45 74 42 0 51-32 51-76 0-42-9-74-50-73" id="aA"/><path fill="#fff" d="M210-169c-67 3-38 105-44 169h-31v-121c0-29-5-50-35-48C34-165 62-65 56 0H25l-1-190h30c1 10-1 24 2 32 10-44 99-50 107 0 11-21 27-35 58-36 85-2 47 119 55 194h-31v-121c0-29-5-49-35-48" id="aB"/><path fill="#fff" d="M24-231v-30h32v30H24zM24 0v-190h32V0H24" id="aC"/><path fill="#fff" d="M117-194c89-4 53 116 60 194h-32v-121c0-31-8-49-39-48C34-167 62-67 57 0H25l-1-190h30c1 10-1 24 2 32 11-22 29-35 61-36" id="aD"/><path fill="#fff" d="M135-143c-3-34-86-38-87 0 15 53 115 12 119 90S17 21 10-45l28-5c4 36 97 45 98 0-10-56-113-15-118-90-4-57 82-63 122-42 12 7 21 19 24 35" id="aE"/><path fill="#fff" d="M59-47c-2 24 18 29 38 22v24C64 9 27 4 27-40v-127H5v-23h24l9-43h21v43h35v23H59v120" id="aF"/><path fill="#fff" d="M114-163C36-179 61-72 57 0H25l-1-190h30c1 12-1 29 2 39 6-27 23-49 58-41v29" id="aG"/><path fill="#fff" d="M141-36C126-15 110 5 73 4 37 3 15-17 15-53c-1-64 63-63 125-63 3-35-9-54-41-54-24 1-41 7-42 31l-33-3c5-37 33-52 76-52 45 0 72 20 72 64v82c-1 20 7 32 28 27v20c-31 9-61-2-59-35zM48-53c0 20 12 33 32 33 41-3 63-29 60-74-43 2-92-5-92 41" id="aH"/><path fill="#fff" d="M100-194c62-1 85 37 85 99 1 63-27 99-86 99S16-35 15-95c0-66 28-99 85-99zM99-20c44 1 53-31 53-75 0-43-8-75-51-75s-53 32-53 75 10 74 51 75" id="aI"/><g id="p"><use transform="matrix(0.07407407407407407,0,0,0.07407407407407407,0,0)" xlink:href="#az"/><use transform="matrix(0.07407407407407407,0,0,0.07407407407407407,17.77777777777778,0)" xlink:href="#aA"/><use transform="matrix(0.07407407407407407,0,0,0.07407407407407407,32.592592592592595,0)" xlink:href="#aB"/><use transform="matrix(0.07407407407407407,0,0,0.07407407407407407,54.74074074074074,0)" xlink:href="#aC"/><use transform="matrix(0.07407407407407407,0,0,0.07407407407407407,60.592592592592595,0)" xlink:href="#aD"/><use transform="matrix(0.07407407407407407,0,0,0.07407407407407407,75.4074074074074,0)" xlink:href="#aC"/><use transform="matrix(0.07407407407407407,0,0,0.07407407407407407,81.25925925925925,0)" xlink:href="#aE"/><use transform="matrix(0.07407407407407407,0,0,0.07407407407407407,94.59259259259258,0)" xlink:href="#aF"/><use transform="matrix(0.07407407407407407,0,0,0.07407407407407407,101.99999999999997,0)" xlink:href="#aG"/><use transform="matrix(0.07407407407407407,0,0,0.07407407407407407,110.8148148148148,0)" xlink:href="#aH"/><use transform="matrix(0.07407407407407407,0,0,0.07407407407407407,125.6296296296296,0)" xlink:href="#aF"/><use transform="matrix(0.07407407407407407,0,0,0.07407407407407407,133.037037037037,0)" xlink:href="#aI"/><use transform="matrix(0.07407407407407407,0,0,0.07407407407407407,147.85185185185182,0)" xlink:href="#aG"/></g><path fill="#fff" d="M137 0h-34L2-248h35l83 218 83-218h36" id="aJ"/><path fill="#fff" d="M179-190L93 31C79 59 56 82 12 73V49c39 6 53-20 64-50L1-190h34L92-34l54-156h33" id="aK"/><path fill="#fff" d="M100-194c62-1 85 37 85 99 1 63-27 99-86 99S16-35 15-95c0-66 28-99 85-99zM99-20c44 1 53-31 53-75 0-43-8-75-51-75s-53 32-53 75 10 74 51 75zm22-194v-33h29v33h-29zm-69 0v-33h29v33H52" id="aL"/><path fill="#fff" d="M100-194c63 0 86 42 84 106H49c0 40 14 67 53 68 26 1 43-12 49-29l28 8c-11 28-37 45-77 45C44 4 14-33 15-96c1-61 26-98 85-98zm52 81c6-60-76-77-97-28-3 7-6 17-6 28h103" id="aM"/><path fill="#fff" d="M143 0L79-87 56-68V0H24v-261h32v163l83-92h37l-77 82L181 0h-38" id="aN"/><path fill="#fff" d="M24-231v-30h32v30H24zM-9 49c24 4 33-6 33-30v-209h32V24c2 40-23 58-65 49V49" id="aO"/><path fill="#fff" d="M141-36C126-15 110 5 73 4 37 3 15-17 15-53c-1-64 63-63 125-63 3-35-9-54-41-54-24 1-41 7-42 31l-33-3c5-37 33-52 76-52 45 0 72 20 72 64v82c-1 20 7 32 28 27v20c-31 9-61-2-59-35zM48-53c0 20 12 33 32 33 41-3 63-29 60-74-43 2-92-5-92 41zm70-161v-33h29v33h-29zm-69 0v-33h29v33H49" id="aP"/><g id="q"><use transform="matrix(0.07407407407407407,0,0,0.07407407407407407,0,0)" xlink:href="#aJ"/><use transform="matrix(0.07407407407407407,0,0,0.07407407407407407,15.777777777777779,0)" xlink:href="#aH"/><use transform="matrix(0.07407407407407407,0,0,0.07407407407407407,30.59259259259259,0)" xlink:href="#aG"/><use transform="matrix(0.07407407407407407,0,0,0.07407407407407407,39.407407407407405,0)" xlink:href="#aH"/><use transform="matrix(0.07407407407407407,0,0,0.07407407407407407,54.222222222222214,0)" xlink:href="#aE"/><use transform="matrix(0.07407407407407407,0,0,0.07407407407407407,67.55555555555554,0)" xlink:href="#aF"/><use transform="matrix(0.07407407407407407,0,0,0.07407407407407407,74.96296296296295,0)" xlink:href="#aI"/><use transform="matrix(0.07407407407407407,0,0,0.07407407407407407,89.77777777777776,0)" xlink:href="#aF"/><use transform="matrix(0.07407407407407407,0,0,0.07407407407407407,97.18518518518516,0)" xlink:href="#aK"/><use transform="matrix(0.07407407407407407,0,0,0.07407407407407407,110.51851851851849,0)" xlink:href="#aL"/><use transform="matrix(0.07407407407407407,0,0,0.07407407407407407,125.33333333333329,0)" xlink:href="#aD"/><use transform="matrix(0.07407407407407407,0,0,0.07407407407407407,140.14814814814812,0)" xlink:href="#aF"/><use transform="matrix(0.07407407407407407,0,0,0.07407407407407407,147.55555555555554,0)" xlink:href="#aM"/><use transform="matrix(0.07407407407407407,0,0,0.07407407407407407,162.37037037037035,0)" xlink:href="#aN"/><use transform="matrix(0.07407407407407407,0,0,0.07407407407407407,175.7037037037037,0)" xlink:href="#aC"/><use transform="matrix(0.07407407407407407,0,0,0.07407407407407407,181.55555555555554,0)" xlink:href="#aO"/><use transform="matrix(0.07407407407407407,0,0,0.07407407407407407,187.4074074074074,0)" xlink:href="#aP"/></g><path fill="#fff" d="M30 0v-248h33v221h125V0H30" id="aQ"/><path fill="#fff" d="M84 4C-5 8 30-112 23-190h32v120c0 31 7 50 39 49 72-2 45-101 50-169h31l1 190h-30c-1-10 1-25-2-33-11 22-28 36-60 37" id="aR"/><g id="r"><use transform="matrix(0.07407407407407407,0,0,0.07407407407407407,0,0)" xlink:href="#aQ"/><use transform="matrix(0.07407407407407407,0,0,0.07407407407407407,14.814814814814813,0)" xlink:href="#aR"/><use transform="matrix(0.07407407407407407,0,0,0.07407407407407407,29.629629629629626,0)" xlink:href="#aI"/><use transform="matrix(0.07407407407407407,0,0,0.07407407407407407,44.44444444444444,0)" xlink:href="#aA"/><use transform="matrix(0.07407407407407407,0,0,0.07407407407407407,59.25925925925925,0)" xlink:href="#aH"/></g><g id="s"><use transform="matrix(0.07407407407407407,0,0,0.07407407407407407,0,0)" xlink:href="#aF"/><use transform="matrix(0.07407407407407407,0,0,0.07407407407407407,7.4074074074074066,0)" xlink:href="#aR"/><use transform="matrix(0.07407407407407407,0,0,0.07407407407407407,22.22222222222222,0)" xlink:href="#aD"/><use transform="matrix(0.07407407407407407,0,0,0.07407407407407407,37.03703703703704,0)" xlink:href="#aD"/><use transform="matrix(0.07407407407407407,0,0,0.07407407407407407,51.85185185185185,0)" xlink:href="#aR"/><use transform="matrix(0.07407407407407407,0,0,0.07407407407407407,66.66666666666666,0)" xlink:href="#aN"/><use transform="matrix(0.07407407407407407,0,0,0.07407407407407407,79.99999999999999,0)" xlink:href="#aE"/><use transform="matrix(0.07407407407407407,0,0,0.07407407407407407,93.33333333333331,0)" xlink:href="#aC"/><use transform="matrix(0.07407407407407407,0,0,0.07407407407407407,99.18518518518516,0)" xlink:href="#aH"/></g><path fill="#fff" d="M30-248c87 1 191-15 191 75 0 78-77 80-158 76V0H30v-248zm33 125c57 0 124 11 124-50 0-59-68-47-124-48v98" id="aS"/><g id="t"><use transform="matrix(0.07407407407407407,0,0,0.07407407407407407,0,0)" xlink:href="#aS"/><use transform="matrix(0.07407407407407407,0,0,0.07407407407407407,17.77777777777778,0)" xlink:href="#aI"/><use transform="matrix(0.07407407407407407,0,0,0.07407407407407407,32.592592592592595,0)" xlink:href="#aC"/><use transform="matrix(0.07407407407407407,0,0,0.07407407407407407,38.44444444444444,0)" xlink:href="#aE"/><use transform="matrix(0.07407407407407407,0,0,0.07407407407407407,51.77777777777777,0)" xlink:href="#aF"/><use transform="matrix(0.07407407407407407,0,0,0.07407407407407407,59.185185185185176,0)" xlink:href="#aH"/><use transform="matrix(0.07407407407407407,0,0,0.07407407407407407,73.99999999999999,0)" xlink:href="#aH"/></g><path fill="#fff" d="M240 0l2-218c-23 76-54 145-80 218h-23L58-218 59 0H30v-248h44l77 211c21-75 51-140 76-211h43V0h-30" id="aT"/><g id="u"><use transform="matrix(0.07407407407407407,0,0,0.07407407407407407,0,0)" xlink:href="#aT"/><use transform="matrix(0.07407407407407407,0,0,0.07407407407407407,22.148148148148145,0)" xlink:href="#aR"/><use transform="matrix(0.07407407407407407,0,0,0.07407407407407407,36.96296296296296,0)" xlink:href="#aI"/><use transform="matrix(0.07407407407407407,0,0,0.07407407407407407,51.77777777777777,0)" xlink:href="#aN"/><use transform="matrix(0.07407407407407407,0,0,0.07407407407407407,65.1111111111111,0)" xlink:href="#aH"/><use transform="matrix(0.07407407407407407,0,0,0.07407407407407407,79.92592592592591,0)" xlink:href="#aF"/><use transform="matrix(0.07407407407407407,0,0,0.07407407407407407,87.33333333333331,0)" xlink:href="#aH"/></g><g id="v"><use transform="matrix(0.07407407407407407,0,0,0.07407407407407407,0,0)" xlink:href="#aQ"/><use transform="matrix(0.07407407407407407,0,0,0.07407407407407407,14.814814814814813,0)" xlink:href="#aC"/><use transform="matrix(0.07407407407407407,0,0,0.07407407407407407,20.666666666666664,0)" xlink:href="#aE"/><use transform="matrix(0.07407407407407407,0,0,0.07407407407407407,34,0)" xlink:href="#aP"/><use transform="matrix(0.07407407407407407,0,0,0.07407407407407407,48.81481481481481,0)" xlink:href="#aF"/><use transform="matrix(0.07407407407407407,0,0,0.07407407407407407,56.22222222222221,0)" xlink:href="#aP"/></g><path fill="#fff" d="M108 0H70L1-190h34L89-25l56-165h34" id="aU"/><g id="w"><use transform="matrix(0.07407407407407407,0,0,0.07407407407407407,0,0)" xlink:href="#aF"/><use transform="matrix(0.07407407407407407,0,0,0.07407407407407407,7.4074074074074066,0)" xlink:href="#aH"/><use transform="matrix(0.07407407407407407,0,0,0.07407407407407407,22.22222222222222,0)" xlink:href="#aU"/><use transform="matrix(0.07407407407407407,0,0,0.07407407407407407,35.55555555555556,0)" xlink:href="#aH"/><use transform="matrix(0.07407407407407407,0,0,0.07407407407407407,50.37037037037037,0)" xlink:href="#aG"/><use transform="matrix(0.07407407407407407,0,0,0.07407407407407407,59.18518518518518,0)" xlink:href="#aH"/></g><g id="x"><use transform="matrix(0.07407407407407407,0,0,0.07407407407407407,0,0)" xlink:href="#aS"/><use transform="matrix(0.07407407407407407,0,0,0.07407407407407407,17.77777777777778,0)" xlink:href="#aI"/><use transform="matrix(0.07407407407407407,0,0,0.07407407407407407,32.592592592592595,0)" xlink:href="#aC"/><use transform="matrix(0.07407407407407407,0,0,0.07407407407407407,38.44444444444444,0)" xlink:href="#aE"/><use transform="matrix(0.07407407407407407,0,0,0.07407407407407407,51.77777777777777,0)" xlink:href="#aF"/><use transform="matrix(0.07407407407407407,0,0,0.07407407407407407,59.185185185185176,0)" xlink:href="#aH"/><use transform="matrix(0.07407407407407407,0,0,0.07407407407407407,73.99999999999999,0)" xlink:href="#aH"/></g><g id="y"><use transform="matrix(0.07407407407407407,0,0,0.07407407407407407,0,0)" xlink:href="#aQ"/><use transform="matrix(0.07407407407407407,0,0,0.07407407407407407,14.814814814814813,0)" xlink:href="#aH"/><use transform="matrix(0.07407407407407407,0,0,0.07407407407407407,29.629629629629626,0)" xlink:href="#aC"/><use transform="matrix(0.07407407407407407,0,0,0.07407407407407407,35.48148148148148,0)" xlink:href="#aD"/><use transform="matrix(0.07407407407407407,0,0,0.07407407407407407,50.29629629629629,0)" xlink:href="#aH"/><use transform="matrix(0.07407407407407407,0,0,0.07407407407407407,65.1111111111111,0)" xlink:href="#aF"/><use transform="matrix(0.07407407407407407,0,0,0.07407407407407407,72.5185185185185,0)" xlink:href="#aH"/></g><g id="z"><use transform="matrix(0.07407407407407407,0,0,0.07407407407407407,0,0)" xlink:href="#aT"/><use transform="matrix(0.07407407407407407,0,0,0.07407407407407407,22.148148148148145,0)" xlink:href="#aR"/><use transform="matrix(0.07407407407407407,0,0,0.07407407407407407,36.96296296296296,0)" xlink:href="#aI"/><use transform="matrix(0.07407407407407407,0,0,0.07407407407407407,51.77777777777777,0)" xlink:href="#aN"/><use transform="matrix(0.07407407407407407,0,0,0.07407407407407407,65.1111111111111,0)" xlink:href="#aH"/><use transform="matrix(0.07407407407407407,0,0,0.07407407407407407,79.92592592592591,0)" xlink:href="#aF"/><use transform="matrix(0.07407407407407407,0,0,0.07407407407407407,87.33333333333331,0)" xlink:href="#aH"/></g><path fill="#fff" d="M24 0v-261h32V0H24" id="aV"/><g id="A"><use transform="matrix(0.07407407407407407,0,0,0.07407407407407407,0,0)" xlink:href="#aF"/><use transform="matrix(0.07407407407407407,0,0,0.07407407407407407,7.4074074074074066,0)" xlink:href="#aR"/><use transform="matrix(0.07407407407407407,0,0,0.07407407407407407,22.22222222222222,0)" xlink:href="#aD"/><use transform="matrix(0.07407407407407407,0,0,0.07407407407407407,37.03703703703704,0)" xlink:href="#aD"/><use transform="matrix(0.07407407407407407,0,0,0.07407407407407407,51.85185185185185,0)" xlink:href="#aR"/><use transform="matrix(0.07407407407407407,0,0,0.07407407407407407,66.66666666666666,0)" xlink:href="#aN"/><use transform="matrix(0.07407407407407407,0,0,0.07407407407407407,79.99999999999999,0)" xlink:href="#aE"/><use transform="matrix(0.07407407407407407,0,0,0.07407407407407407,93.33333333333331,0)" xlink:href="#aC"/><use transform="matrix(0.07407407407407407,0,0,0.07407407407407407,99.18518518518516,0)" xlink:href="#aV"/><use transform="matrix(0.07407407407407407,0,0,0.07407407407407407,105.03703703703701,0)" xlink:href="#aV"/><use transform="matrix(0.07407407407407407,0,0,0.07407407407407407,110.88888888888884,0)" xlink:href="#aH"/></g><g id="B"><use transform="matrix(0.07407407407407407,0,0,0.07407407407407407,0,0)" xlink:href="#aI"/><use transform="matrix(0.07407407407407407,0,0,0.07407407407407407,14.814814814814813,0)" xlink:href="#aC"/><use transform="matrix(0.07407407407407407,0,0,0.07407407407407407,20.666666666666664,0)" xlink:href="#aN"/><use transform="matrix(0.07407407407407407,0,0,0.07407407407407407,34,0)" xlink:href="#aM"/><use transform="matrix(0.07407407407407407,0,0,0.07407407407407407,48.81481481481481,0)" xlink:href="#aR"/><use transform="matrix(0.07407407407407407,0,0,0.07407407407407407,63.62962962962962,0)" xlink:href="#aN"/><use transform="matrix(0.07407407407407407,0,0,0.07407407407407407,76.96296296296295,0)" xlink:href="#aE"/><use transform="matrix(0.07407407407407407,0,0,0.07407407407407407,90.29629629629628,0)" xlink:href="#aC"/><use transform="matrix(0.07407407407407407,0,0,0.07407407407407407,96.14814814814812,0)" xlink:href="#aH"/></g><path fill="#282c33" d="M140-251c81 0 123 46 123 126C263-46 219 4 140 4 59 4 17-45 17-125s42-126 123-126zm0 227c63 0 89-41 89-101s-29-99-89-99c-61 0-89 39-89 99S79-25 140-24" id="aW"/><path fill="#282c33" d="M115-194c55 1 70 41 70 98S169 2 115 4C84 4 66-9 55-30l1 105H24l-1-265h31l2 30c10-21 28-34 59-34zm-8 174c40 0 45-34 45-75s-6-73-45-74c-42 0-51 32-51 76 0 43 10 73 51 73" id="aX"/><path fill="#282c33" d="M24-231v-30h32v30H24zM24 0v-190h32V0H24" id="aY"/><path fill="#282c33" d="M117-194c89-4 53 116 60 194h-32v-121c0-31-8-49-39-48C34-167 62-67 57 0H25l-1-190h30c1 10-1 24 2 32 11-22 29-35 61-36" id="aZ"/><path fill="#282c33" d="M59-47c-2 24 18 29 38 22v24C64 9 27 4 27-40v-127H5v-23h24l9-43h21v43h35v23H59v120" id="ba"/><path fill="#282c33" d="M100-194c62-1 85 37 85 99 1 63-27 99-86 99S16-35 15-95c0-66 28-99 85-99zM99-20c44 1 53-31 53-75 0-43-8-75-51-75s-53 32-53 75 10 74 51 75" id="bb"/><path fill="#282c33" d="M210-169c-67 3-38 105-44 169h-31v-121c0-29-5-50-35-48C34-165 62-65 56 0H25l-1-190h30c1 10-1 24 2 32 10-44 99-50 107 0 11-21 27-35 58-36 85-2 47 119 55 194h-31v-121c0-29-5-49-35-48" id="bc"/><path fill="#282c33" d="M135-143c-3-34-86-38-87 0 15 53 115 12 119 90S17 21 10-45l28-5c4 36 97 45 98 0-10-56-113-15-118-90-4-57 82-63 122-42 12 7 21 19 24 35" id="bd"/><g id="C"><use transform="matrix(0.05925925925925927,0,0,0.05925925925925927,0,0)" xlink:href="#aW"/><use transform="matrix(0.05925925925925927,0,0,0.05925925925925927,16.592592592592595,0)" xlink:href="#aX"/><use transform="matrix(0.05925925925925927,0,0,0.05925925925925927,28.44444444444445,0)" xlink:href="#aY"/><use transform="matrix(0.05925925925925927,0,0,0.05925925925925927,33.125925925925934,0)" xlink:href="#aZ"/><use transform="matrix(0.05925925925925927,0,0,0.05925925925925927,44.97777777777779,0)" xlink:href="#ba"/><use transform="matrix(0.05925925925925927,0,0,0.05925925925925927,50.90370370370371,0)" xlink:href="#bb"/><use transform="matrix(0.05925925925925927,0,0,0.05925925925925927,62.75555555555557,0)" xlink:href="#ba"/><use transform="matrix(0.05925925925925927,0,0,0.05925925925925927,68.6814814814815,0)" xlink:href="#bb"/><use transform="matrix(0.05925925925925927,0,0,0.05925925925925927,80.53333333333335,0)" xlink:href="#aY"/><use transform="matrix(0.05925925925925927,0,0,0.05925925925925927,85.21481481481483,0)" xlink:href="#bc"/><use transform="matrix(0.05925925925925927,0,0,0.05925925925925927,102.93333333333335,0)" xlink:href="#aY"/><use transform="matrix(0.05925925925925927,0,0,0.05925925925925927,107.61481481481484,0)" xlink:href="#bd"/><use transform="matrix(0.05925925925925927,0,0,0.05925925925925927,118.2814814814815,0)" xlink:href="#ba"/><use transform="matrix(0.05925925925925927,0,0,0.05925925925925927,124.20740740740743,0)" xlink:href="#bb"/></g><g id="D"><use transform="matrix(0.06790123456790123,0,0,0.06790123456790123,0,0)" xlink:href="#aQ"/><use transform="matrix(0.06790123456790123,0,0,0.06790123456790123,13.580246913580247,0)" xlink:href="#aR"/><use transform="matrix(0.06790123456790123,0,0,0.06790123456790123,27.160493827160494,0)" xlink:href="#aI"/><use transform="matrix(0.06790123456790123,0,0,0.06790123456790123,40.74074074074074,0)" xlink:href="#aA"/><use transform="matrix(0.06790123456790123,0,0,0.06790123456790123,54.32098765432099,0)" xlink:href="#aH"/></g><g id="E"><use transform="matrix(0.06790123456790123,0,0,0.06790123456790123,0,0)" xlink:href="#aF"/><use transform="matrix(0.06790123456790123,0,0,0.06790123456790123,6.790123456790123,0)" xlink:href="#aR"/><use transform="matrix(0.06790123456790123,0,0,0.06790123456790123,20.37037037037037,0)" xlink:href="#aD"/><use transform="matrix(0.06790123456790123,0,0,0.06790123456790123,33.95061728395062,0)" xlink:href="#aD"/><use transform="matrix(0.06790123456790123,0,0,0.06790123456790123,47.53086419753087,0)" xlink:href="#aR"/><use transform="matrix(0.06790123456790123,0,0,0.06790123456790123,61.111111111111114,0)" xlink:href="#aN"/><use transform="matrix(0.06790123456790123,0,0,0.06790123456790123,73.33333333333334,0)" xlink:href="#aE"/><use transform="matrix(0.06790123456790123,0,0,0.06790123456790123,85.55555555555557,0)" xlink:href="#aC"/><use transform="matrix(0.06790123456790123,0,0,0.06790123456790123,90.91975308641977,0)" xlink:href="#aH"/></g><g id="F"><use transform="matrix(0.06790123456790123,0,0,0.06790123456790123,0,0)" xlink:href="#aS"/><use transform="matrix(0.06790123456790123,0,0,0.06790123456790123,16.296296296296294,0)" xlink:href="#aI"/><use transform="matrix(0.06790123456790123,0,0,0.06790123456790123,29.87654320987654,0)" xlink:href="#aC"/><use transform="matrix(0.06790123456790123,0,0,0.06790123456790123,35.24074074074074,0)" xlink:href="#aE"/><use transform="matrix(0.06790123456790123,0,0,0.06790123456790123,47.46296296296296,0)" xlink:href="#aF"/><use transform="matrix(0.06790123456790123,0,0,0.06790123456790123,54.25308641975309,0)" xlink:href="#aH"/><use transform="matrix(0.06790123456790123,0,0,0.06790123456790123,67.83333333333334,0)" xlink:href="#aH"/></g><g id="G"><use transform="matrix(0.06790123456790123,0,0,0.06790123456790123,0,0)" xlink:href="#aT"/><use transform="matrix(0.06790123456790123,0,0,0.06790123456790123,20.30246913580247,0)" xlink:href="#aR"/><use transform="matrix(0.06790123456790123,0,0,0.06790123456790123,33.882716049382715,0)" xlink:href="#aI"/><use transform="matrix(0.06790123456790123,0,0,0.06790123456790123,47.46296296296296,0)" xlink:href="#aN"/><use transform="matrix(0.06790123456790123,0,0,0.06790123456790123,59.68518518518518,0)" xlink:href="#aH"/><use transform="matrix(0.06790123456790123,0,0,0.06790123456790123,73.26543209876543,0)" xlink:href="#aF"/><use transform="matrix(0.06790123456790123,0,0,0.06790123456790123,80.05555555555556,0)" xlink:href="#aH"/></g><path fill="#333" d="M153-248C145-148 188 4 80 4 36 3 13-21 6-62l32-5c4 25 16 42 43 43 27 0 39-20 39-49v-147H72v-28h81" id="be"/><path fill="#333" d="M100-194c62-1 85 37 85 99 1 63-27 99-86 99S16-35 15-95c0-66 28-99 85-99zM99-20c44 1 53-31 53-75 0-43-8-75-51-75s-53 32-53 75 10 74 51 75" id="bf"/><path fill="#333" d="M135-143c-3-34-86-38-87 0 15 53 115 12 119 90S17 21 10-45l28-5c4 36 97 45 98 0-10-56-113-15-118-90-4-57 82-63 122-42 12 7 21 19 24 35" id="bg"/><g id="H"><use transform="matrix(0.05,0,0,0.05,0,0)" xlink:href="#be"/><use transform="matrix(0.05,0,0,0.05,9,0)" xlink:href="#bf"/><use transform="matrix(0.05,0,0,0.05,19,0)" xlink:href="#bg"/></g><path fill="#333" d="M143 0L79-87 56-68V0H24v-261h32v163l83-92h37l-77 82L181 0h-38" id="bh"/><path fill="#333" d="M141-36C126-15 110 5 73 4 37 3 15-17 15-53c-1-64 63-63 125-63 3-35-9-54-41-54-24 1-41 7-42 31l-33-3c5-37 33-52 76-52 45 0 72 20 72 64v82c-1 20 7 32 28 27v20c-31 9-61-2-59-35zM48-53c0 20 12 33 32 33 41-3 63-29 60-74-43 2-92-5-92 41zm70-161v-33h29v33h-29zm-69 0v-33h29v33H49" id="bi"/><path fill="#333" d="M179-190L93 31C79 59 56 82 12 73V49c39 6 53-20 64-50L1-190h34L92-34l54-156h33" id="bj"/><path fill="#333" d="M59-47c-2 24 18 29 38 22v24C64 9 27 4 27-40v-127H5v-23h24l9-43h21v43h35v23H59v120" id="bk"/><path fill="#333" d="M24-231v-30h32v30H24zM-9 49c24 4 33-6 33-30v-209h32V24c2 40-23 58-65 49V49" id="bl"/><path fill="#333" d="M24 0v-261h32V0H24" id="bm"/><g id="I"><use transform="matrix(0.05,0,0,0.05,0,0)" xlink:href="#bh"/><use transform="matrix(0.05,0,0,0.05,9,0)" xlink:href="#bi"/><use transform="matrix(0.05,0,0,0.05,19,0)" xlink:href="#bj"/><use transform="matrix(0.05,0,0,0.05,28,0)" xlink:href="#bk"/><use transform="matrix(0.05,0,0,0.05,33,0)" xlink:href="#bk"/><use transform="matrix(0.05,0,0,0.05,38,0)" xlink:href="#bi"/><use transform="matrix(0.05,0,0,0.05,48,0)" xlink:href="#bl"/><use transform="matrix(0.05,0,0,0.05,51.95,0)" xlink:href="#bi"/><use transform="matrix(0.05,0,0,0.05,61.95,0)" xlink:href="#bm"/><use transform="matrix(0.05,0,0,0.05,65.9,0)" xlink:href="#bm"/><use transform="matrix(0.05,0,0,0.05,69.85000000000001,0)" xlink:href="#bi"/></g><path fill="#333" d="M117-194c89-4 53 116 60 194h-32v-121c0-31-8-49-39-48C34-167 62-67 57 0H25l-1-190h30c1 10-1 24 2 32 11-22 29-35 61-36" id="bn"/><g id="J"><use transform="matrix(0.05,0,0,0.05,0,0)" xlink:href="#bf"/><use transform="matrix(0.05,0,0,0.05,10,0)" xlink:href="#bn"/></g><path fill="#333" d="M24-231v-30h32v30H24zM24 0v-190h32V0H24" id="bo"/><path fill="#333" d="M100-194c63 0 86 42 84 106H49c0 40 14 67 53 68 26 1 43-12 49-29l28 8c-11 28-37 45-77 45C44 4 14-33 15-96c1-61 26-98 85-98zm52 81c6-60-76-77-97-28-3 7-6 17-6 28h103" id="bp"/><path fill="#333" d="M84 4C-5 8 30-112 23-190h32v120c0 31 7 50 39 49 72-2 45-101 50-169h31l1 190h-30c-1-10 1-25-2-33-11 22-28 36-60 37" id="bq"/><path fill="#333" d="M141-36C126-15 110 5 73 4 37 3 15-17 15-53c-1-64 63-63 125-63 3-35-9-54-41-54-24 1-41 7-42 31l-33-3c5-37 33-52 76-52 45 0 72 20 72 64v82c-1 20 7 32 28 27v20c-31 9-61-2-59-35zM48-53c0 20 12 33 32 33 41-3 63-29 60-74-43 2-92-5-92 41" id="br"/><g id="K"><use transform="matrix(0.05,0,0,0.05,0,0)" xlink:href="#bf"/><use transform="matrix(0.05,0,0,0.05,10,0)" xlink:href="#bo"/><use transform="matrix(0.05,0,0,0.05,13.949999999999998,0)" xlink:href="#bh"/><use transform="matrix(0.05,0,0,0.05,22.95,0)" xlink:href="#bp"/><use transform="matrix(0.05,0,0,0.05,32.95,0)" xlink:href="#bq"/><use transform="matrix(0.05,0,0,0.05,42.95,0)" xlink:href="#bh"/><use transform="matrix(0.05,0,0,0.05,51.95,0)" xlink:href="#bg"/><use transform="matrix(0.05,0,0,0.05,60.95,0)" xlink:href="#bo"/><use transform="matrix(0.05,0,0,0.05,64.9,0)" xlink:href="#br"/></g><g id="L"><use transform="matrix(0.06790123456790123,0,0,0.06790123456790123,0,0)" xlink:href="#aF"/><use transform="matrix(0.06790123456790123,0,0,0.06790123456790123,6.790123456790123,0)" xlink:href="#aR"/><use transform="matrix(0.06790123456790123,0,0,0.06790123456790123,20.37037037037037,0)" xlink:href="#aD"/><use transform="matrix(0.06790123456790123,0,0,0.06790123456790123,33.95061728395062,0)" xlink:href="#aD"/><use transform="matrix(0.06790123456790123,0,0,0.06790123456790123,47.53086419753087,0)" xlink:href="#aR"/><use transform="matrix(0.06790123456790123,0,0,0.06790123456790123,61.111111111111114,0)" xlink:href="#aN"/><use transform="matrix(0.06790123456790123,0,0,0.06790123456790123,73.33333333333334,0)" xlink:href="#aE"/><use transform="matrix(0.06790123456790123,0,0,0.06790123456790123,85.55555555555557,0)" xlink:href="#aC"/><use transform="matrix(0.06790123456790123,0,0,0.06790123456790123,90.91975308641977,0)" xlink:href="#aV"/><use transform="matrix(0.06790123456790123,0,0,0.06790123456790123,96.28395061728398,0)" xlink:href="#aV"/><use transform="matrix(0.06790123456790123,0,0,0.06790123456790123,101.64814814814817,0)" xlink:href="#aH"/></g><g id="M"><use transform="matrix(0.06790123456790123,0,0,0.06790123456790123,0,0)" xlink:href="#aI"/><use transform="matrix(0.06790123456790123,0,0,0.06790123456790123,13.580246913580247,0)" xlink:href="#aC"/><use transform="matrix(0.06790123456790123,0,0,0.06790123456790123,18.944444444444443,0)" xlink:href="#aN"/><use transform="matrix(0.06790123456790123,0,0,0.06790123456790123,31.166666666666664,0)" xlink:href="#aM"/><use transform="matrix(0.06790123456790123,0,0,0.06790123456790123,44.74691358024691,0)" xlink:href="#aR"/><use transform="matrix(0.06790123456790123,0,0,0.06790123456790123,58.32716049382716,0)" xlink:href="#aN"/><use transform="matrix(0.06790123456790123,0,0,0.06790123456790123,70.54938271604938,0)" xlink:href="#aE"/><use transform="matrix(0.06790123456790123,0,0,0.06790123456790123,82.7716049382716,0)" xlink:href="#aC"/><use transform="matrix(0.06790123456790123,0,0,0.06790123456790123,88.1358024691358,0)" xlink:href="#aH"/></g></defs></g></svg>